# Blender v2.79 (sub 0) OBJ File: 'vegetation.blend'
# www.blender.org
o Circle.001_Circle.009
v 20.172358 -1.489029 -2.099041
v 17.374844 0.830480 -3.924891
v 21.585363 1.588800 -4.818303
v 23.595606 1.270915 -0.876614
v 20.672808 0.237409 2.517870
v 16.782785 0.043929 0.568902
v 19.063288 5.034114 -3.839288
v 22.913734 5.296175 -1.946958
v 22.321678 4.509624 2.546835
v 18.111156 3.751306 3.440248
v 16.100912 4.069193 -0.501444
v 19.524162 6.829134 0.720984
v 25.096416 4.292878 -3.540121
v 22.532209 3.243176 -2.683331
v 25.007597 2.711279 -1.199027
v 27.176680 2.285377 -3.033895
v 26.044216 2.548773 -5.628040
v 23.171370 3.146014 -5.435530
v 23.029211 0.583605 -1.632462
v 25.898115 -0.005035 -1.864249
v 26.537275 -0.102198 -4.616447
v 24.061888 0.429699 -6.100752
v 21.892805 0.855601 -4.265882
v 23.973068 -1.151899 -3.759657
v 15.827270 -1.134809 1.782994
v 14.291965 1.046806 2.799317
v 13.883116 0.230938 0.117687
v 16.442467 -0.530826 -0.915311
v 18.445957 -0.190429 1.140608
v 17.103962 0.789293 3.423688
v 13.965226 2.996583 0.735947
v 15.287372 2.024092 -1.566615
v 18.099369 1.766579 -0.942242
v 18.508221 2.582446 1.739388
v 15.948869 3.344210 2.772386
v 16.564066 3.948192 0.074080
v 24.956575 3.324531 -3.385198
v 23.486315 -0.344320 -2.330522
v 23.576084 0.897795 -6.459310
v 22.550785 4.851327 -6.622369
v 21.831104 6.087361 -2.592740
v 22.405550 2.841475 0.058180
v 20.179153 -1.017137 -4.912874
v 19.593645 2.126063 -7.568339
v 18.512878 5.311855 -5.179640
v 18.423111 4.069745 -1.050850
v 19.448412 0.116214 -0.887793
v 17.042620 1.643010 -4.124962
vt 0.274416 0.251450
vt 0.274416 0.251450
vt 0.274416 0.251450
vt 0.274416 0.251450
vt 0.274416 0.251450
vt 0.274416 0.251450
vt 0.274416 0.251450
vt 0.274416 0.251450
vt 0.274416 0.251450
vt 0.274416 0.251450
vt 0.274416 0.251450
vt 0.274416 0.251450
vt 0.244629 0.699648
vt 0.244629 0.699648
vt 0.244629 0.699648
vt 0.244629 0.699648
vt 0.244629 0.699648
vt 0.244629 0.699648
vt 0.244629 0.699648
vt 0.244629 0.699648
vt 0.244629 0.699648
vt 0.244629 0.699648
vt 0.244629 0.699648
vt 0.244629 0.699648
vt 0.759666 0.706616
vt 0.759666 0.706616
vt 0.759666 0.706616
vt 0.759666 0.706616
vt 0.759666 0.706616
vt 0.759666 0.706616
vt 0.759666 0.706616
vt 0.759666 0.706616
vt 0.759666 0.706616
vt 0.759666 0.706616
vt 0.759666 0.706616
vt 0.759666 0.706616
vt 0.599002 0.739473
vt 0.599002 0.739473
vt 0.599002 0.739473
vt 0.599002 0.739473
vt 0.599002 0.739473
vt 0.599002 0.739473
vt 0.599002 0.739473
vt 0.599002 0.739473
vt 0.599002 0.739473
vt 0.599002 0.739473
vt 0.599002 0.739473
vt 0.599002 0.739473
vn -0.0439 -0.6501 -0.7586
vn -0.5372 -0.8160 -0.2136
vn 0.6585 -0.6450 -0.3878
vn 0.5570 -0.7959 0.2373
vn -0.1344 -0.9233 0.3598
vn -0.9647 -0.2068 -0.1633
vn -0.2253 0.1102 -0.9680
vn 0.8914 0.0308 -0.4521
vn 0.7662 -0.2996 0.5685
vn -0.3736 -0.4806 0.7934
vn -0.7533 0.3143 -0.5777
vn 0.3579 0.4882 -0.7959
vn 0.9647 0.2068 0.1633
vn 0.2226 -0.0925 0.9705
vn -0.8914 -0.0308 0.4521
vn -0.5491 0.7951 -0.2575
vn 0.1213 0.9194 -0.3742
vn 0.5372 0.8160 0.2136
vn 0.0439 0.6501 0.7586
vn -0.6585 0.6450 0.3878
vn -0.1528 0.8216 0.5492
vn -0.4120 0.9022 -0.1275
vn 0.5439 0.6856 0.4838
vn 0.7038 0.6689 -0.2393
vn 0.1235 0.7885 -0.6025
vn -0.8952 0.3866 -0.2216
vn -0.4574 0.2515 0.8529
vn 0.6486 0.0264 0.7607
vn 0.9170 0.0185 -0.3984
vn -0.0168 0.2326 -0.9724
vn -0.9186 -0.0157 0.3948
vn 0.0319 -0.2279 0.9732
vn 0.8952 -0.3866 0.2216
vn 0.4607 -0.2404 -0.8544
vn -0.6486 -0.0264 -0.7607
vn -0.7040 -0.6704 0.2346
vn -0.1147 -0.7940 0.5969
vn 0.4120 -0.9022 0.1275
vn 0.1528 -0.8216 -0.5492
vn -0.5439 -0.6856 -0.4838
vn -0.7076 -0.6387 0.3022
vn -0.2293 -0.5390 0.8105
vn -0.3768 -0.8819 -0.2833
vn 0.3050 -0.9418 -0.1413
vn 0.3994 -0.7337 0.5496
vn -0.2005 0.1559 0.9672
vn -0.9884 -0.0047 0.1521
vn -0.4433 -0.4043 -0.8000
vn 0.6647 -0.4861 -0.5673
vn 0.8274 -0.1362 0.5448
vn -0.6658 0.4868 0.5654
vn -0.8304 0.1449 -0.5380
vn 0.2005 -0.1559 -0.9672
vn 0.9880 0.0111 -0.1540
vn 0.4433 0.4043 0.8000
vn -0.3088 0.9408 0.1402
vn -0.4072 0.7338 -0.5438
vn 0.2293 0.5390 -0.8105
vn 0.7076 0.6387 -0.3022
vn 0.3768 0.8819 0.2833
vn 0.9136 -0.3945 -0.0988
vn 0.8039 -0.1573 0.5735
vn 0.8289 0.1933 -0.5249
vn 0.6406 0.7587 -0.1183
vn 0.6290 0.5555 0.5439
vn 0.2303 -0.5326 0.8145
vn 0.3824 -0.8871 -0.2586
vn 0.2774 0.0323 -0.9602
vn 0.0046 0.9563 -0.2925
vn -0.0218 0.6301 0.7762
vn -0.0139 -0.9631 0.2687
vn 0.0145 -0.6437 -0.7651
vn -0.2303 0.5326 -0.8145
vn -0.4044 0.8782 0.2554
vn -0.2774 -0.0323 0.9602
vn -0.6282 -0.7712 0.1031
vn -0.6195 -0.5707 -0.5390
vn -0.8039 0.1573 -0.5735
vn -0.9136 0.3945 0.0988
vn -0.8289 -0.1933 0.5249
s off
f 1/1/1 2/2/1 3/3/1
f 2/2/2 1/1/2 6/4/2
f 1/1/3 3/3/3 4/5/3
f 1/1/4 4/5/4 5/6/4
f 1/1/5 5/6/5 6/4/5
f 2/2/6 6/4/6 11/7/6
f 3/3/7 2/2/7 7/8/7
f 4/5/8 3/3/8 8/9/8
f 5/6/9 4/5/9 9/10/9
f 6/4/10 5/6/10 10/11/10
f 2/2/11 11/7/11 7/8/11
f 3/3/12 7/8/12 8/9/12
f 4/5/13 8/9/13 9/10/13
f 5/6/14 9/10/14 10/11/14
f 6/4/15 10/11/15 11/7/15
f 7/8/16 11/7/16 12/12/16
f 8/9/17 7/8/17 12/12/17
f 9/10/18 8/9/18 12/12/18
f 10/11/19 9/10/19 12/12/19
f 11/7/20 10/11/20 12/12/20
f 13/13/21 14/14/21 15/15/21
f 14/14/22 13/13/22 18/16/22
f 13/13/23 15/15/23 16/17/23
f 13/13/24 16/17/24 17/18/24
f 13/13/25 17/18/25 18/16/25
f 14/14/26 18/16/26 23/19/26
f 15/15/27 14/14/27 19/20/27
f 16/17/28 15/15/28 20/21/28
f 17/18/29 16/17/29 21/22/29
f 18/16/30 17/18/30 22/23/30
f 14/14/31 23/19/31 19/20/31
f 15/15/32 19/20/32 20/21/32
f 16/17/33 20/21/33 21/22/33
f 17/18/34 21/22/34 22/23/34
f 18/16/35 22/23/35 23/19/35
f 19/20/36 23/19/36 24/24/36
f 20/21/37 19/20/37 24/24/37
f 21/22/38 20/21/38 24/24/38
f 22/23/39 21/22/39 24/24/39
f 23/19/40 22/23/40 24/24/40
f 25/25/41 26/26/41 27/27/41
f 26/26/42 25/25/42 30/28/42
f 25/25/43 27/27/43 28/29/43
f 25/25/44 28/29/44 29/30/44
f 25/25/45 29/30/45 30/28/45
f 26/26/46 30/28/46 35/31/46
f 27/27/47 26/26/47 31/32/47
f 28/29/48 27/27/48 32/33/48
f 29/30/49 28/29/49 33/34/49
f 30/28/50 29/30/50 34/35/50
f 26/26/51 35/31/51 31/32/51
f 27/27/52 31/32/52 32/33/52
f 28/29/53 32/33/53 33/34/53
f 29/30/54 33/34/54 34/35/54
f 30/28/55 34/35/55 35/31/55
f 31/32/56 35/31/56 36/36/56
f 32/33/57 31/32/57 36/36/57
f 33/34/58 32/33/58 36/36/58
f 34/35/59 33/34/59 36/36/59
f 35/31/60 34/35/60 36/36/60
f 37/37/61 38/38/61 39/39/61
f 38/38/62 37/37/62 42/40/62
f 37/37/63 39/39/63 40/41/63
f 37/37/64 40/41/64 41/42/64
f 37/37/65 41/42/65 42/40/65
f 38/38/66 42/40/66 47/43/66
f 39/39/67 38/38/67 43/44/67
f 40/41/68 39/39/68 44/45/68
f 41/42/69 40/41/69 45/46/69
f 42/40/70 41/42/70 46/47/70
f 38/38/71 47/43/71 43/44/71
f 39/39/72 43/44/72 44/45/72
f 40/41/73 44/45/73 45/46/73
f 41/42/74 45/46/74 46/47/74
f 42/40/75 46/47/75 47/43/75
f 43/44/76 47/43/76 48/48/76
f 44/45/77 43/44/77 48/48/77
f 45/46/78 44/45/78 48/48/78
f 46/47/79 45/46/79 48/48/79
f 47/43/80 46/47/80 48/48/80
