# Blender v2.79 (sub 0) OBJ File: 'Assets.blend'
# www.blender.org
o Cube.008_Cube.014
v 1.775228 1.323606 -2.504035
v -1.908967 0.150614 -2.062127
v 1.830678 1.402483 -2.467321
v 1.764542 1.430995 -2.504350
v -2.069443 1.550026 1.514503
v -2.098514 0.661133 1.679347
v -2.579540 0.816931 -1.006199
v -2.418890 1.911210 -0.526758
v 2.833569 2.069741 -0.773496
v 1.564878 3.705906 -0.362224
v 1.053620 -0.132025 -2.399813
v 2.777813 1.360384 0.044037
v 1.615027 1.360609 1.955257
v -0.155771 1.379856 2.377645
v -0.384728 3.339729 1.254767
v -1.212337 2.339628 1.728258
v 0.728048 3.374538 1.352488
v 1.097624 1.977272 2.174768
v -1.391522 -0.292292 -2.115436
v -1.087794 -0.301183 -2.150345
v 1.041473 -0.359959 -2.122171
v 1.843361 -0.355272 -0.050636
v -1.708052 0.352283 1.910182
v -0.476949 0.776791 2.358865
v 0.837888 -0.017816 1.922521
v 0.802617 -0.303462 1.709034
v -1.031727 -0.254707 1.540288
v -0.275045 2.550015 -2.285193
v 0.724878 2.545375 -2.400476
v -1.011244 3.496313 -1.000477
v 0.991295 3.766913 -0.875180
v -0.767208 3.673096 -0.802211
vn -0.9816 0.0654 0.1796
vn 0.5035 0.0476 -0.8627
vn -0.6514 0.3827 -0.6552
vn 0.7659 -0.4429 0.4660
vn -0.0278 -0.9995 0.0130
vn -0.0915 0.4870 0.8686
vn 0.7543 0.4695 0.4589
vn -0.6895 0.6837 0.2390
vn -0.3911 0.1802 0.9026
vn 0.8383 -0.4388 -0.3235
vn -0.0129 -0.7726 -0.6348
vn -0.6444 -0.7614 0.0712
vn 0.2278 -0.1513 0.9619
vn -0.0895 -0.5891 0.8031
vn -0.0456 0.9847 0.1681
vn -0.0674 0.7845 -0.6165
vn 0.5731 0.5879 -0.5709
vn -0.1146 -0.0143 -0.9933
s off
f 7//1 6//1 5//1 8//1
f 4//2 3//2 1//2
f 30//3 28//3 2//3 7//3 8//3
f 26//4 22//4 12//4 13//4 25//4
f 26//5 27//5 19//5 20//5 21//5 22//5
f 18//6 17//6 15//6 16//6 14//6
f 17//7 18//7 13//7 12//7 9//7 10//7
f 30//8 8//8 5//8 16//8 15//8 32//8
f 24//9 14//9 16//9 5//9 6//9 23//9
f 9//10 12//10 22//10 21//10 11//10 1//10 3//10
f 11//11 21//11 20//11
f 23//12 6//12 7//12 2//12 19//12 27//12
f 13//13 18//13 14//13 24//13 25//13
f 25//14 24//14 23//14 27//14 26//14
f 17//15 10//15 31//15 32//15 15//15
f 29//16 28//16 30//16 32//16 31//16
f 10//17 9//17 3//17 4//17 29//17 31//17
f 4//18 1//18 11//18 20//18 19//18 2//18 28//18 29//18
