# Blender v2.79 (sub 0) OBJ File: 'Assets.blend'
# www.blender.org
o rock3_Cube.006
v 1.202371 3.519146 0.176374
v 0.851729 3.134988 -0.744763
v -2.116439 1.846721 -1.349444
v -0.887411 3.050711 1.357188
v -2.474238 1.913962 -0.607186
v -0.624740 1.836266 2.787205
v 2.246805 2.348750 1.327284
v 1.706172 1.845777 2.106035
v 1.010566 1.364578 -1.665546
v -2.608340 0.717400 0.093678
v -1.767301 0.265143 1.965656
v -0.893680 -0.204634 1.361212
v 1.591484 0.465529 -1.047181
v 0.253006 -0.201146 1.025234
v 1.549955 0.444844 1.118810
v 2.100186 0.718905 0.096603
v 0.323219 0.700911 -1.994891
v -1.693155 0.809099 -1.896103
v -0.897544 -0.202556 -0.556529
v -1.935572 0.355629 -1.220567
v 0.256811 -0.199250 -0.705904
v 1.048733 0.195194 -1.366331
vn -0.3429 0.9062 -0.2474
vn 0.8596 -0.3549 0.3676
vn 0.1774 0.7660 0.6179
vn -0.0188 0.4600 -0.8877
vn 0.2312 -0.5775 0.7830
vn -0.8168 0.3570 0.4532
vn -0.4736 -0.8807 -0.0000
vn 0.8495 0.2845 -0.4444
vn 0.4458 -0.8951 -0.0000
vn 0.0027 -1.0000 -0.0011
vn -0.8964 -0.1449 -0.4190
vn -0.0719 -0.8160 -0.5736
vn 0.5655 -0.1871 -0.8032
s off
f 2//1 3//1 5//1 4//1 1//1
f 16//2 7//2 8//2 15//2
f 4//3 6//3 8//3 7//3 1//3
f 18//4 3//4 2//4 9//4 17//4
f 15//5 8//5 6//5 11//5 12//5 14//5
f 5//6 10//6 11//6 6//6 4//6
f 20//7 19//7 12//7 11//7 10//7
f 7//8 16//8 13//8 9//8 2//8 1//8
f 13//9 16//9 15//9 14//9 21//9 22//9
f 14//10 12//10 19//10 21//10
f 10//11 5//11 3//11 18//11 20//11
f 18//12 17//12 22//12 21//12 19//12 20//12
f 9//13 13//13 22//13 17//13
