# Blender v2.79 (sub 0) OBJ File: 'Assets.blend'
# www.blender.org
o rock1_Cube.009
v -1.823419 3.700559 1.887032
v -2.658975 3.630561 0.661796
v -2.121240 3.879001 -1.076017
v 1.030342 4.447419 -0.235510
v -0.819051 4.209820 -1.920614
v 0.744552 2.939667 -2.785800
v 0.139234 3.113039 -2.946408
v -1.598179 1.332207 -2.223541
v -0.827431 1.500284 -2.731811
v 2.083104 4.039155 -0.122330
v 2.492896 3.150883 -1.213626
v -2.497581 0.905449 0.685267
v -1.391412 3.121657 2.472633
v -1.419732 1.415705 2.298488
v 0.422849 -0.201941 1.449919
v -0.041194 0.758940 2.465286
v 0.940654 0.853000 -2.227570
v 0.571659 0.689787 -2.258438
v -0.273772 -0.251596 -0.753619
v 2.417351 1.075278 -0.907611
v 1.700476 0.112911 0.824112
v 1.816929 0.178686 0.794245
v 1.434441 2.825944 1.727713
v -0.370066 2.709432 2.603596
v 0.214826 1.097829 2.542022
v 1.377974 1.357552 1.952559
v -1.877562 0.603729 -1.203958
v -2.357105 0.567498 0.309717
v -0.863901 -0.423402 0.085557
v -0.757445 -0.375851 -0.411160
vn 0.1849 -0.2377 -0.9536
vn -0.1972 0.9772 0.0787
vn -0.5703 0.2372 -0.7864
vn 0.3588 0.7853 -0.5045
vn 0.4062 -0.8597 -0.3096
vn -0.5625 -0.8029 -0.1974
vn -0.8242 -0.0440 0.5646
vn 0.4271 0.1208 0.8961
vn 0.6716 -0.1319 -0.7291
vn 0.4757 -0.5200 0.7095
vn -0.1652 -0.0974 0.9814
vn 0.2362 0.7725 0.5894
vn 0.9402 0.0159 0.3401
vn 0.2174 -0.9750 -0.0467
vn -0.4185 -0.7474 0.5160
vn -0.2346 -0.7594 -0.6069
vn -0.9512 -0.0589 -0.3028
s off
f 18//1 9//1 7//1 6//1 17//1
f 1//2 4//2 5//2 3//2 2//2
f 5//3 7//3 9//3 8//3 3//3
f 4//4 10//4 11//4 6//4 7//4 5//4
f 18//5 17//5 20//5 22//5 21//5 19//5
f 27//6 30//6 29//6 28//6
f 1//7 2//7 12//7 14//7 13//7
f 26//8 23//8 24//8 25//8
f 6//9 11//9 20//9 17//9
f 22//10 26//10 25//10 16//10 15//10 21//10
f 16//11 25//11 24//11 13//11 14//11
f 4//12 1//12 13//12 24//12 23//12 10//12
f 22//13 20//13 11//13 10//13 23//13 26//13
f 19//14 21//14 15//14 29//14 30//14
f 15//15 16//15 14//15 12//15 28//15 29//15
f 18//16 19//16 30//16 27//16 8//16 9//16
f 3//17 8//17 27//17 28//17 12//17 2//17
