# Blender v2.79 (sub 0) OBJ File: 'vegetation.blend'
# www.blender.org
o Circle.003_Circle.011
v 0.483301 -1.489029 -1.924249
v -3.047562 0.830480 -3.847878
v 1.917049 1.588800 -4.640745
v 4.339206 1.270915 -0.644134
v 0.978334 0.237409 2.691940
v -3.695662 0.043929 0.638442
v -0.583039 5.034114 -3.658798
v 3.657336 5.296175 -1.714478
v 2.626669 4.509624 2.720834
v -2.361912 3.751306 3.510505
v -4.362315 4.069193 -0.429875
v -0.167163 6.829134 0.895474
v -5.172730 -1.134809 1.782994
v -6.708035 1.046806 2.799317
v -7.116885 0.230938 0.117687
v -4.557534 -0.530826 -0.915311
v -2.554044 -0.190429 1.140608
v -3.896038 0.789293 3.423688
v -7.034774 2.996583 0.735947
v -5.712628 2.024092 -1.566615
v -2.900632 1.766579 -0.942242
v -2.491780 2.582446 1.739388
v -5.051131 3.344210 2.772386
v -4.435934 3.948192 0.074080
vt 0.244503 0.295623
vt 0.244503 0.295623
vt 0.244503 0.295623
vt 0.244503 0.295623
vt 0.244503 0.295623
vt 0.244503 0.295623
vt 0.244503 0.295623
vt 0.244503 0.295623
vt 0.244503 0.295623
vt 0.244503 0.295623
vt 0.244503 0.295623
vt 0.244503 0.295623
vt 0.267255 0.759855
vt 0.267255 0.759855
vt 0.267255 0.759855
vt 0.267255 0.759855
vt 0.267255 0.759855
vt 0.267255 0.759855
vt 0.267255 0.759855
vt 0.267255 0.759855
vt 0.267255 0.759855
vt 0.267255 0.759855
vt 0.267255 0.759855
vt 0.267255 0.759855
vn -0.0202 -0.6563 -0.7542
vn -0.4507 -0.8659 -0.2169
vn 0.6158 -0.6628 -0.4259
vn 0.5057 -0.8244 0.2541
vn -0.1194 -0.9257 0.3590
vn -0.9628 -0.2059 -0.1752
vn -0.1780 0.1481 -0.9728
vn 0.8554 0.0072 -0.5179
vn 0.7182 -0.2814 0.6364
vn -0.3307 -0.5007 0.7999
vn -0.6507 0.4102 -0.6390
vn 0.3414 0.4783 -0.8091
vn 0.9388 0.2278 0.2585
vn 0.1665 -0.0709 0.9835
vn -0.8922 -0.0282 0.4507
vn -0.4609 0.8392 -0.2887
vn 0.1143 0.9206 -0.3733
vn 0.5084 0.8198 0.2635
vn 0.0252 0.6368 0.7706
vn -0.5895 0.7243 0.3577
vn -0.7076 -0.6387 0.3022
vn -0.2293 -0.5390 0.8105
vn -0.3768 -0.8819 -0.2833
vn 0.3050 -0.9418 -0.1413
vn 0.3994 -0.7337 0.5496
vn -0.2005 0.1559 0.9672
vn -0.9884 -0.0047 0.1521
vn -0.4433 -0.4043 -0.8000
vn 0.6647 -0.4861 -0.5673
vn 0.8274 -0.1362 0.5448
vn -0.6658 0.4868 0.5654
vn -0.8304 0.1449 -0.5380
vn 0.2005 -0.1559 -0.9672
vn 0.9880 0.0111 -0.1540
vn 0.4433 0.4043 0.8000
vn -0.3088 0.9407 0.1402
vn -0.4072 0.7338 -0.5438
vn 0.2293 0.5390 -0.8105
vn 0.7076 0.6387 -0.3022
vn 0.3768 0.8819 0.2833
s off
f 1/1/1 2/2/1 3/3/1
f 2/2/2 1/1/2 6/4/2
f 1/1/3 3/3/3 4/5/3
f 1/1/4 4/5/4 5/6/4
f 1/1/5 5/6/5 6/4/5
f 2/2/6 6/4/6 11/7/6
f 3/3/7 2/2/7 7/8/7
f 4/5/8 3/3/8 8/9/8
f 5/6/9 4/5/9 9/10/9
f 6/4/10 5/6/10 10/11/10
f 2/2/11 11/7/11 7/8/11
f 3/3/12 7/8/12 8/9/12
f 4/5/13 8/9/13 9/10/13
f 5/6/14 9/10/14 10/11/14
f 6/4/15 10/11/15 11/7/15
f 7/8/16 11/7/16 12/12/16
f 8/9/17 7/8/17 12/12/17
f 9/10/18 8/9/18 12/12/18
f 10/11/19 9/10/19 12/12/19
f 11/7/20 10/11/20 12/12/20
f 13/13/21 14/14/21 15/15/21
f 14/14/22 13/13/22 18/16/22
f 13/13/23 15/15/23 16/17/23
f 13/13/24 16/17/24 17/18/24
f 13/13/25 17/18/25 18/16/25
f 14/14/26 18/16/26 23/19/26
f 15/15/27 14/14/27 19/20/27
f 16/17/28 15/15/28 20/21/28
f 17/18/29 16/17/29 21/22/29
f 18/16/30 17/18/30 22/23/30
f 14/14/31 23/19/31 19/20/31
f 15/15/32 19/20/32 20/21/32
f 16/17/33 20/21/33 21/22/33
f 17/18/34 21/22/34 22/23/34
f 18/16/35 22/23/35 23/19/35
f 19/20/36 23/19/36 24/24/36
f 20/21/37 19/20/37 24/24/37
f 21/22/38 20/21/38 24/24/38
f 22/23/39 21/22/39 24/24/39
f 23/19/40 22/23/40 24/24/40
