# Blender v2.79 (sub 0) OBJ File: 'vegetation.blend'
# www.blender.org
o Circle.002_Circle.010
v 38.203629 -0.826288 -2.801355
v 35.550575 1.444589 -0.717038
v 37.186581 3.069578 -4.429801
v 41.484531 1.981574 -4.278456
v 42.570724 -0.401493 -0.500284
v 38.837345 -0.647706 1.728943
v 37.183296 5.666982 -0.902337
v 40.859173 5.987810 -3.106999
v 44.145943 3.895515 -0.661018
v 42.509937 2.270528 3.051746
v 38.211987 3.358535 2.900401
v 41.492889 6.166394 1.423298
v 43.551678 4.292878 -1.829872
v 40.987469 3.243176 -0.973083
v 43.462856 2.711279 0.511221
v 45.631939 2.285377 -1.323647
v 44.499474 2.548773 -3.917792
v 41.626629 3.146014 -3.725282
v 41.484470 0.583605 0.077786
v 44.353374 -0.005035 -0.154001
v 44.992535 -0.102198 -2.906199
v 42.517147 0.429699 -4.390504
v 40.348064 0.855601 -2.555634
v 42.428329 -1.151899 -2.049409
v 36.635559 0.463432 3.913343
v 34.064716 1.603009 3.421774
v 34.689743 -0.896976 2.245611
v 37.456150 -0.799295 1.514122
v 38.551289 1.773581 2.247352
v 36.444794 3.245778 3.417209
v 33.302063 1.051296 0.723652
v 35.392445 -0.440105 -0.460249
v 37.772522 1.202665 -0.464813
v 37.147495 3.702651 0.711349
v 34.381088 3.604970 1.442838
v 35.201679 2.342241 -0.956382
v 43.670860 2.174553 -5.221181
v 43.380230 0.236904 -2.697779
v 41.875378 -0.496571 -5.620177
v 40.725742 2.213614 -6.854578
v 41.519875 4.645802 -4.708611
v 43.160671 3.400366 -2.126002
v 40.254997 -0.875273 -2.798143
v 38.614929 0.300103 -5.340634
v 38.395370 3.463563 -4.768856
v 39.900223 4.197042 -1.846459
v 41.049858 1.486856 -0.612061
v 38.104740 1.525917 -2.245456
vt 0.269230 0.770101
vt 0.269230 0.770101
vt 0.269230 0.770101
vt 0.269230 0.770101
vt 0.269230 0.770101
vt 0.269230 0.770101
vt 0.269230 0.770101
vt 0.269230 0.770101
vt 0.269230 0.770101
vt 0.269230 0.770101
vt 0.269230 0.770101
vt 0.269230 0.770101
vt 0.221025 0.221536
vt 0.221025 0.221536
vt 0.221025 0.221536
vt 0.221025 0.221536
vt 0.221025 0.221536
vt 0.221025 0.221536
vt 0.221025 0.221536
vt 0.221025 0.221536
vt 0.221025 0.221536
vt 0.221025 0.221536
vt 0.221025 0.221536
vt 0.221025 0.221536
vt 0.762459 0.729012
vt 0.762459 0.729012
vt 0.762459 0.729012
vt 0.762459 0.729012
vt 0.762459 0.729012
vt 0.762459 0.729012
vt 0.762459 0.729012
vt 0.762459 0.729012
vt 0.762459 0.729012
vt 0.762459 0.729012
vt 0.762459 0.729012
vt 0.762459 0.729012
vt 0.804783 0.714961
vt 0.804783 0.714961
vt 0.804783 0.714961
vt 0.804783 0.714961
vt 0.804783 0.714961
vt 0.804783 0.714961
vt 0.804783 0.714961
vt 0.804783 0.714961
vt 0.804783 0.714961
vt 0.804783 0.714961
vt 0.804783 0.714961
vt 0.804783 0.714961
vn -0.7542 -0.4110 -0.5122
vn -0.5926 -0.7973 0.1143
vn -0.0691 -0.4000 -0.9139
vn 0.3713 -0.7334 -0.5694
vn 0.0823 -0.9962 0.0278
vn -0.6852 -0.3009 0.6633
vn -0.9065 0.3395 -0.2509
vn 0.1080 0.2945 -0.9495
vn 0.8358 -0.3230 -0.4440
vn 0.3826 -0.7352 0.5596
vn -0.8342 0.3416 0.4330
vn -0.3920 0.7406 -0.5457
vn 0.6852 0.3009 -0.6633
vn 0.9099 -0.3239 0.2592
vn -0.1080 -0.2945 0.9495
vn -0.3840 0.7395 0.5528
vn -0.1018 0.9945 -0.0250
vn 0.5926 0.7973 -0.1143
vn 0.7542 0.4110 0.5122
vn 0.0691 0.4000 0.9139
vn -0.1528 0.8216 0.5492
vn -0.4120 0.9022 -0.1275
vn 0.5439 0.6856 0.4838
vn 0.7038 0.6689 -0.2393
vn 0.1235 0.7885 -0.6025
vn -0.8952 0.3866 -0.2216
vn -0.4574 0.2515 0.8529
vn 0.6486 0.0264 0.7607
vn 0.9170 0.0185 -0.3984
vn -0.0168 0.2326 -0.9724
vn -0.9186 -0.0157 0.3948
vn 0.0319 -0.2279 0.9732
vn 0.8952 -0.3866 0.2216
vn 0.4607 -0.2404 -0.8544
vn -0.6486 -0.0264 -0.7607
vn -0.7040 -0.6704 0.2346
vn -0.1147 -0.7940 0.5969
vn 0.4120 -0.9022 0.1275
vn 0.1528 -0.8216 -0.5492
vn -0.5439 -0.6856 -0.4838
vn -0.3621 -0.4694 0.8053
vn -0.1133 0.1669 0.9794
vn 0.1629 -0.8491 0.5026
vn 0.7408 -0.4559 0.4933
vn 0.5715 0.1819 0.8002
vn -0.4553 0.6613 0.5962
vn -0.8717 -0.3694 0.3219
vn -0.0099 -0.9856 -0.1690
vn 0.9214 -0.3370 -0.1936
vn 0.6508 0.7026 0.2877
vn -0.9222 0.3356 0.1921
vn -0.6590 -0.6947 -0.2884
vn 0.4553 -0.6613 -0.5962
vn 0.8688 0.3713 -0.3276
vn 0.0099 0.9856 0.1690
vn -0.7433 0.4528 -0.4925
vn -0.5794 -0.1814 -0.7946
vn 0.1133 -0.1669 -0.9794
vn 0.3621 0.4694 -0.8053
vn -0.1629 0.8491 -0.5026
vn 0.8133 -0.5030 -0.2926
vn 0.9884 0.0422 0.1462
vn 0.4742 -0.1904 -0.8596
vn 0.4197 0.5196 -0.7442
vn 0.7316 0.6665 -0.1434
vn 0.6353 -0.0944 0.7664
vn 0.3327 -0.9408 0.0648
vn -0.1892 -0.4724 -0.8609
vn -0.2460 0.6852 -0.6855
vn 0.2505 0.9247 0.2867
vn 0.2280 -0.7016 0.6752
vn -0.2503 -0.9302 -0.2685
vn -0.6353 0.0944 -0.7664
vn -0.3525 0.9343 -0.0530
vn 0.1892 0.4724 0.8609
vn -0.4139 -0.5394 0.7333
vn -0.7191 -0.6785 0.1502
vn -0.9884 -0.0422 -0.1462
vn -0.8133 0.5030 0.2926
vn -0.4742 0.1904 0.8596
s off
f 1/1/1 2/2/1 3/3/1
f 2/2/2 1/1/2 6/4/2
f 1/1/3 3/3/3 4/5/3
f 1/1/4 4/5/4 5/6/4
f 1/1/5 5/6/5 6/4/5
f 2/2/6 6/4/6 11/7/6
f 3/3/7 2/2/7 7/8/7
f 4/5/8 3/3/8 8/9/8
f 5/6/9 4/5/9 9/10/9
f 6/4/10 5/6/10 10/11/10
f 2/2/11 11/7/11 7/8/11
f 3/3/12 7/8/12 8/9/12
f 4/5/13 8/9/13 9/10/13
f 5/6/14 9/10/14 10/11/14
f 6/4/15 10/11/15 11/7/15
f 7/8/16 11/7/16 12/12/16
f 8/9/17 7/8/17 12/12/17
f 9/10/18 8/9/18 12/12/18
f 10/11/19 9/10/19 12/12/19
f 11/7/20 10/11/20 12/12/20
f 13/13/21 14/14/21 15/15/21
f 14/14/22 13/13/22 18/16/22
f 13/13/23 15/15/23 16/17/23
f 13/13/24 16/17/24 17/18/24
f 13/13/25 17/18/25 18/16/25
f 14/14/26 18/16/26 23/19/26
f 15/15/27 14/14/27 19/20/27
f 16/17/28 15/15/28 20/21/28
f 17/18/29 16/17/29 21/22/29
f 18/16/30 17/18/30 22/23/30
f 14/14/31 23/19/31 19/20/31
f 15/15/32 19/20/32 20/21/32
f 16/17/33 20/21/33 21/22/33
f 17/18/34 21/22/34 22/23/34
f 18/16/35 22/23/35 23/19/35
f 19/20/36 23/19/36 24/24/36
f 20/21/37 19/20/37 24/24/37
f 21/22/38 20/21/38 24/24/38
f 22/23/39 21/22/39 24/24/39
f 23/19/40 22/23/40 24/24/40
f 25/25/41 26/26/41 27/27/41
f 26/26/42 25/25/42 30/28/42
f 25/25/43 27/27/43 28/29/43
f 25/25/44 28/29/44 29/30/44
f 25/25/45 29/30/45 30/28/45
f 26/26/46 30/28/46 35/31/46
f 27/27/47 26/26/47 31/32/47
f 28/29/48 27/27/48 32/33/48
f 29/30/49 28/29/49 33/34/49
f 30/28/50 29/30/50 34/35/50
f 26/26/51 35/31/51 31/32/51
f 27/27/52 31/32/52 32/33/52
f 28/29/53 32/33/53 33/34/53
f 29/30/54 33/34/54 34/35/54
f 30/28/55 34/35/55 35/31/55
f 31/32/56 35/31/56 36/36/56
f 32/33/57 31/32/57 36/36/57
f 33/34/58 32/33/58 36/36/58
f 34/35/59 33/34/59 36/36/59
f 35/31/60 34/35/60 36/36/60
f 37/37/61 38/38/61 39/39/61
f 38/38/62 37/37/62 42/40/62
f 37/37/63 39/39/63 40/41/63
f 37/37/64 40/41/64 41/42/64
f 37/37/65 41/42/65 42/40/65
f 38/38/66 42/40/66 47/43/66
f 39/39/67 38/38/67 43/44/67
f 40/41/68 39/39/68 44/45/68
f 41/42/69 40/41/69 45/46/69
f 42/40/70 41/42/70 46/47/70
f 38/38/71 47/43/71 43/44/71
f 39/39/72 43/44/72 44/45/72
f 40/41/73 44/45/73 45/46/73
f 41/42/74 45/46/74 46/47/74
f 42/40/75 46/47/75 47/43/75
f 43/44/76 47/43/76 48/48/76
f 44/45/77 43/44/77 48/48/77
f 45/46/78 44/45/78 48/48/78
f 46/47/79 45/46/79 48/48/79
f 47/43/80 46/47/80 48/48/80
