# Blender v2.78 (sub 0) OBJ File: 'vegetation.blend'
# www.blender.org
o Circle.008_Circle.016
v 0.515046 1.000000 -1.180902
v -0.595150 1.000000 -0.351722
v -0.179490 1.000000 0.989919
v 1.211208 1.000000 0.989919
v 1.634626 1.000000 -0.351722
v 1.801112 3.495855 -0.303002
v 0.906412 3.526037 -0.974520
v 1.460966 3.508024 0.783537
v 0.147978 0.508857 0.715000
v 0.130687 0.841734 0.290109
v 0.061852 0.573121 -0.097465
v 0.033489 0.075782 0.085469
v 0.079942 0.039438 0.582322
v -2.808531 -0.374916 1.177549
v -2.930089 -0.298770 1.033429
v -2.888966 -0.386440 0.885654
v -2.741801 -0.516774 0.938578
v -2.691976 -0.509656 1.119059
v -1.444692 0.530213 0.481799
v -1.377360 0.495746 0.943438
v -1.397105 1.209657 0.690285
v -1.456501 0.970152 0.325747
v -1.356193 0.917671 1.071871
v 1.272223 0.489376 0.128411
v 0.992713 0.745876 0.299421
v 0.757654 0.538895 0.491128
v 0.891427 0.155667 0.441603
v 1.208436 0.127662 0.223972
v 2.767428 -0.210975 2.083186
v 2.717222 -0.171934 2.226378
v 2.597820 -0.235501 2.241747
v 2.574252 -0.313804 2.107875
v 2.679088 -0.298632 2.009773
v 1.712643 0.505832 1.287915
v 1.998119 0.479273 1.069439
v 1.835127 1.029382 1.177683
v 1.612034 0.844830 1.354396
v 2.076628 0.804390 1.007017
v 0.571617 0.489376 -0.608310
v 0.756963 0.745876 -0.338094
v 0.960662 0.538895 -0.113348
v 0.904232 0.155667 -0.244357
v 0.670373 0.127662 -0.549591
v 2.445799 -0.210975 -2.203373
v 2.591413 -0.171934 -2.160700
v 2.612985 -0.235501 -2.042261
v 2.480523 -0.313804 -2.011747
v 2.377090 -0.298632 -2.111327
v 1.706588 0.022083 -1.108570
v 1.473529 -0.004476 -1.382270
v 1.590122 0.545633 -1.225141
v 1.778224 0.361081 -1.011563
v 1.407100 0.320641 -1.457419
v 0.515515 0.300000 -1.072361
v -0.483661 0.300000 -0.326099
v -0.109567 0.300000 0.881378
v 1.142061 0.300000 0.881378
v 1.523138 0.300000 -0.326099
v 0.516360 0.000000 -0.876987
v -0.282981 0.000000 -0.279978
v 0.016294 0.000000 0.686004
v 1.017596 0.000000 0.686004
v 1.322458 0.000000 -0.279978
v 0.295772 3.271904 0.805275
v 1.389704 3.776453 0.775317
v 1.684677 3.912501 -0.299978
v 0.900437 3.550791 -0.973766
v -0.093377 3.092419 -0.311701
v 0.845436 3.525423 0.783537
v 0.849692 3.527386 -0.931759
vt 0.7542 0.2438
vt 0.7542 0.2438
vt 0.7542 0.2438
vt 0.7542 0.2438
vt 0.7542 0.2438
vt 0.7542 0.2438
vt 0.7542 0.2438
vt 0.7542 0.2438
vt 0.7542 0.2438
vt 0.7542 0.2438
vt 0.7542 0.2438
vt 0.7542 0.2438
vt 0.7542 0.2438
vt 0.7542 0.2438
vt 0.7542 0.2438
vt 0.7542 0.2438
vt 0.7542 0.2438
vt 0.7542 0.2438
vt 0.7542 0.2438
vt 0.7542 0.2438
vt 0.7542 0.2438
vt 0.7542 0.2438
vt 0.7542 0.2438
vt 0.7542 0.2438
vt 0.7542 0.2438
vt 0.7542 0.2438
vt 0.7542 0.2438
vt 0.7542 0.2438
vt 0.7542 0.2438
vt 0.7542 0.2438
vt 0.7542 0.2438
vt 0.7542 0.2438
vt 0.7542 0.2438
vt 0.7542 0.2438
vt 0.7542 0.2438
vt 0.7542 0.2438
vt 0.7542 0.2438
vt 0.7542 0.2438
vt 0.7542 0.2438
vt 0.7542 0.2438
vt 0.7542 0.2438
vt 0.7542 0.2438
vt 0.7542 0.2438
vt 0.7542 0.2438
vt 0.7542 0.2438
vt 0.7542 0.2438
vt 0.7542 0.2438
vt 0.7542 0.2438
vt 0.7542 0.2438
vt 0.7542 0.2438
vt 0.7542 0.2438
vt 0.7542 0.2438
vt 0.7542 0.2438
vt 0.7542 0.2438
vt 0.7542 0.2438
vt 0.7542 0.2438
vt 0.7542 0.2438
vt 0.7542 0.2438
vt 0.7542 0.2438
vt 0.7542 0.2438
vt 0.7542 0.2438
vt 0.7542 0.2438
vt 0.7542 0.2438
vt 0.7542 0.2438
vt 0.7542 0.2438
vt 0.7542 0.2438
vt 0.7542 0.2438
vt 0.7542 0.2438
vt 0.7542 0.2438
vt 0.7542 0.2438
vn -0.5994 -0.1206 -0.7913
vn 0.9515 -0.0697 0.2996
vn 0.5970 -0.0256 -0.8018
vn 0.5902 -0.7947 -0.1415
vn -0.7019 0.6114 -0.3654
vn 0.3056 -0.2556 0.9172
vn -0.0374 -0.3530 -0.9349
vn -0.5005 0.6288 0.5950
vn 0.3342 0.7566 0.5621
vn -0.3327 -0.3155 -0.8887
vn 0.1441 -0.2914 0.9457
vn 0.0539 0.8231 -0.5653
vn -0.3042 -0.9520 -0.0342
vn -0.6898 -0.6906 0.2174
vn -0.3695 -0.8259 -0.4258
vn -0.0261 0.6343 0.7727
vn 0.6782 -0.2558 -0.6889
vn -0.8066 -0.3702 0.4608
vn 0.7415 0.6570 0.1365
vn 0.3283 0.7566 -0.5655
vn -0.6143 -0.3155 0.7232
vn 0.7559 -0.2914 -0.5862
vn -0.5200 0.8231 0.2281
vn 0.1182 -0.9520 0.2824
vn 0.4719 -0.7947 0.3818
vn -0.1779 -0.9656 0.1898
vn 0.6651 0.7354 0.1296
vn -0.6533 -0.2811 -0.7029
vn 0.5986 -0.4031 0.6923
vn -0.0685 0.7592 -0.6472
vn -0.3482 0.7912 -0.5028
vn 0.6654 -0.3295 0.6698
vn -0.7102 -0.2954 -0.6391
vn 0.4975 0.8187 0.2866
vn -0.0353 -0.9919 0.1219
vn 0.3566 -0.7947 -0.4912
vn 0.9443 -0.1395 0.2980
vn -0.9458 -0.1399 0.2930
vn 0.5906 -0.1233 -0.7975
vn 0.0000 -0.1532 0.9882
vn -0.5938 -0.1237 -0.7950
vn 0.8207 -0.5092 0.2590
vn -0.8214 -0.5104 0.2545
vn 0.5277 -0.4625 -0.7125
vn 0.0000 -0.5457 0.8380
vn -0.5302 -0.4638 -0.7098
vn 0.0000 -1.0000 0.0000
vn -0.5915 0.1566 -0.7910
vn 0.5951 0.1718 -0.7851
vn 0.0009 0.0308 0.9995
vn 0.9236 0.2552 0.2860
vn -0.9321 0.2182 0.2892
vn 0.0010 0.0814 0.9967
vn -0.4188 0.9081 0.0000
s off
f 70/1/1 67/2/1 7/3/1
f 5/4/2 6/5/2 8/6/2 4/7/2
f 1/8/3 7/3/3 6/5/3 5/4/3
f 20/9/4 18/10/4 17/11/4 19/12/4
f 22/13/5 16/14/5 15/15/5 21/16/5
f 23/17/6 14/18/6 18/10/6 20/9/6
f 19/12/7 17/11/7 16/14/7 22/13/7
f 21/16/8 15/15/8 14/18/8 23/17/8
f 10/19/9 21/16/9 23/17/9 9/20/9
f 12/21/10 19/12/10 22/13/10 11/22/10
f 9/20/11 23/17/11 20/9/11 13/23/11
f 11/22/12 22/13/12 21/16/12 10/19/12
f 13/23/13 20/9/13 19/12/13 12/21/13
f 15/15/14 16/14/14 17/11/14 18/10/14 14/18/14
f 35/24/15 33/25/15 32/26/15 34/27/15
f 37/28/16 31/29/16 30/30/16 36/31/16
f 38/32/17 29/33/17 33/25/17 35/24/17
f 34/27/18 32/26/18 31/29/18 37/28/18
f 36/31/19 30/30/19 29/33/19 38/32/19
f 25/34/20 36/31/20 38/32/20 24/35/20
f 27/36/21 34/27/21 37/28/21 26/37/21
f 24/35/22 38/32/22 35/24/22 28/38/22
f 26/37/23 37/28/23 36/31/23 25/34/23
f 28/38/24 35/24/24 34/27/24 27/36/24
f 30/30/25 31/29/25 32/26/25 33/25/25 29/33/25
f 50/39/26 48/40/26 47/41/26 49/42/26
f 52/43/27 46/44/27 45/45/27 51/46/27
f 53/47/28 44/48/28 48/40/28 50/39/28
f 49/42/29 47/41/29 46/44/29 52/43/29
f 51/46/30 45/45/30 44/48/30 53/47/30
f 40/49/31 51/46/31 53/47/31 39/50/31
f 42/51/32 49/42/32 52/43/32 41/52/32
f 39/50/33 53/47/33 50/39/33 43/53/33
f 41/52/34 52/43/34 51/46/34 40/49/34
f 43/53/35 50/39/35 49/42/35 42/51/35
f 45/45/36 46/44/36 47/41/36 48/40/36 44/48/36
f 5/4/37 4/7/37 57/54/37 58/55/37
f 3/56/38 2/57/38 55/58/38 56/59/38
f 1/8/39 5/4/39 58/55/39 54/60/39
f 4/7/40 3/56/40 56/59/40 57/54/40
f 2/57/41 1/8/41 54/60/41 55/58/41
f 58/55/42 57/54/42 62/61/42 63/62/42
f 56/59/43 55/58/43 60/63/43 61/64/43
f 54/60/44 58/55/44 63/62/44 59/65/44
f 57/54/45 56/59/45 61/64/45 62/61/45
f 55/58/46 54/60/46 59/65/46 60/63/46
f 60/63/47 59/65/47 63/62/47 62/61/47 61/64/47
f 2/57/48 68/66/48 70/1/48 7/3/48 1/8/48
f 7/3/49 67/2/49 66/67/49 6/5/49
f 8/6/50 65/68/50 69/69/50
f 6/5/51 66/67/51 65/68/51 8/6/51
f 3/56/52 64/70/52 68/66/52 2/57/52
f 4/7/53 8/6/53 69/69/53 64/70/53 3/56/53
f 68/66/54 64/70/54 69/69/54 65/68/54 66/67/54 67/2/54 70/1/54
