# Blender v2.79 (sub 0) OBJ File: 'vegetation.blend'
# www.blender.org
o Circle.006
v 60.000000 -30.000000 -1.000000
v 59.048943 -30.000000 -0.309017
v 59.412216 -30.000000 0.809017
v 60.587784 -30.000000 0.809017
v 60.951057 -30.000000 -0.309017
v 61.191605 -22.088774 -0.426872
v 60.887707 -21.918327 -0.173720
v 61.003784 -21.983431 0.235889
v 61.379425 -22.194115 0.235889
v 61.495502 -22.259220 -0.173720
v 60.312862 -25.957352 0.737468
v 60.630043 -25.991524 -0.292127
v 58.976097 -25.847305 -0.292126
v 59.293434 -25.869310 0.737468
v 59.804562 -25.906771 -0.928451
v 60.180141 -26.632721 -0.857435
v 59.777912 -27.117407 -0.651488
v 59.513874 -26.932274 -0.072580
v 59.752922 -26.333168 0.079258
v 60.164700 -26.148033 -0.405809
v 56.845940 -24.119637 -2.592521
v 56.634308 -24.233452 -2.557890
v 56.562122 -24.189980 -2.330205
v 56.729141 -24.049297 -2.224119
v 56.904549 -24.005823 -2.386239
v 57.979553 -25.499407 -1.094929
v 58.369930 -25.345995 -1.534531
v 57.971565 -26.154152 -1.787564
v 57.734383 -25.997728 -1.250658
v 58.357929 -25.746269 -1.967088
v 58.604458 -22.638899 -1.942334
v 57.732044 -21.273962 1.113116
v 57.269337 -19.328892 -2.069760
v 60.434689 -20.023237 -4.119130
v 62.885128 -22.458309 -2.266056
v 61.183319 -23.170429 1.030923
v 59.019032 -17.806870 0.832845
v 60.693424 -17.041737 -2.408979
v 64.144699 -18.938204 -2.491172
v 64.607407 -20.883274 0.691705
v 61.442055 -20.188927 2.741077
v 63.272285 -17.573269 0.564277
v 58.607002 -18.789120 3.064135
v 57.448875 -19.838821 0.621187
v 56.272152 -20.370720 3.256719
v 58.353912 -20.796619 5.190094
v 60.793518 -20.533226 3.754693
v 60.257862 -19.935984 0.925669
v 56.465195 -22.498392 1.240630
v 57.039371 -23.087032 4.061031
v 59.848358 -23.184196 4.365513
v 61.025082 -22.652298 1.729981
v 58.943321 -22.226397 -0.203394
v 58.690231 -24.233896 1.922565
v 55.745415 -24.288404 -0.817602
v 55.576214 -23.148829 -3.429546
v 56.871578 -25.648813 -3.119622
v 58.273781 -25.551132 -0.625242
v 57.838783 -22.978256 0.618837
v 56.177814 -21.506060 -1.126750
v 57.996670 -23.700541 -4.844781
v 59.667194 -25.191942 -3.118318
v 60.268791 -23.549171 -0.815523
v 58.973431 -21.049187 -1.125446
v 57.571224 -21.146868 -3.619825
v 60.099590 -22.409595 -3.427465
v 60.087078 -26.175026 0.307626
v 60.187492 -26.534103 -0.011743
v 60.019207 -26.396948 -0.452068
v 59.814789 -25.953102 -0.404835
v 59.856735 -25.815945 0.064682
v 62.736263 -24.313210 -0.550147
v 62.828007 -24.397530 -0.679851
v 62.745361 -24.365322 -0.836320
v 62.602539 -24.261097 -0.803320
v 62.596916 -24.228889 -0.626455
v 61.356476 -25.335411 -0.730390
v 61.385551 -25.221756 -0.295806
v 61.726208 -25.820478 -0.374518
v 61.566132 -25.704592 -0.778833
v 61.620098 -25.518297 -0.077260
v 65.728004 -22.913628 0.700398
v 63.717453 -24.518192 1.318565
v 65.433945 -25.125580 -0.794050
v 65.988159 -22.881281 -2.076263
v 64.624382 -20.867191 -0.760752
v 63.210800 -21.898535 1.342053
v 62.754963 -25.439182 -1.085234
v 64.138359 -24.465857 -3.174154
v 63.631710 -21.846201 -3.150666
v 61.915222 -21.238808 -1.038050
v 61.361008 -23.483109 0.244161
v 61.621159 -23.450762 -2.532499
v 59.856453 -24.574812 0.009892
v 60.034012 -24.933891 0.293710
v 60.478085 -24.796734 0.451839
v 60.574978 -24.352888 0.265750
v 60.190788 -24.215733 -0.007388
v 58.640594 -22.690189 2.437583
v 58.679596 -22.774509 2.591593
v 58.852242 -22.742302 2.630416
v 58.919937 -22.638077 2.500400
v 58.789135 -22.605869 2.381223
v 59.674011 -23.712391 1.505733
v 59.324741 -23.598736 1.245504
v 59.163269 -24.197460 1.555615
v 59.574635 -24.081573 1.696589
v 59.006222 -23.895279 1.281831
vt 0.901240 0.116703
vt 0.901240 0.116703
vt 0.901240 0.116703
vt 0.901240 0.116703
vt 0.901240 0.116703
vt 0.901240 0.116703
vt 0.901240 0.116703
vt 0.901240 0.116703
vt 0.901240 0.116703
vt 0.901240 0.116703
vt 0.901240 0.116703
vt 0.901240 0.116703
vt 0.901240 0.116703
vt 0.901240 0.116703
vt 0.901240 0.116703
vt 0.901240 0.116703
vt 0.901240 0.116703
vt 0.901240 0.116703
vt 0.901240 0.116703
vt 0.901240 0.116703
vt 0.901240 0.116703
vt 0.901240 0.116703
vt 0.901240 0.116703
vt 0.901240 0.116703
vt 0.901240 0.116703
vt 0.901240 0.116703
vt 0.901240 0.116703
vt 0.901240 0.116703
vt 0.901240 0.116703
vt 0.901240 0.116703
vt 0.186878 0.667203
vt 0.186878 0.667203
vt 0.186878 0.667203
vt 0.186878 0.667203
vt 0.186878 0.667203
vt 0.186878 0.667203
vt 0.186878 0.667203
vt 0.186878 0.667203
vt 0.186878 0.667203
vt 0.186878 0.667203
vt 0.186878 0.667203
vt 0.186878 0.667203
vt 0.831503 0.788379
vt 0.831503 0.788379
vt 0.831503 0.788379
vt 0.831503 0.788379
vt 0.831503 0.788379
vt 0.831503 0.788379
vt 0.831503 0.788379
vt 0.831503 0.788379
vt 0.831503 0.788379
vt 0.831503 0.788379
vt 0.831503 0.788379
vt 0.831503 0.788379
vt 0.679914 0.766603
vt 0.679914 0.766603
vt 0.679914 0.766603
vt 0.679914 0.766603
vt 0.679914 0.766603
vt 0.679914 0.766603
vt 0.679914 0.766603
vt 0.679914 0.766603
vt 0.679914 0.766603
vt 0.679914 0.766603
vt 0.679914 0.766603
vt 0.679914 0.766603
vt 0.901240 0.116703
vt 0.901240 0.116703
vt 0.901240 0.116703
vt 0.901240 0.116703
vt 0.901240 0.116703
vt 0.901240 0.116703
vt 0.901240 0.116703
vt 0.901240 0.116703
vt 0.901240 0.116703
vt 0.901240 0.116703
vt 0.901240 0.116703
vt 0.901240 0.116703
vt 0.901240 0.116703
vt 0.901240 0.116703
vt 0.901240 0.116703
vt 0.238784 0.239684
vt 0.238784 0.239684
vt 0.238784 0.239684
vt 0.238784 0.239684
vt 0.238784 0.239684
vt 0.238784 0.239684
vt 0.238784 0.239684
vt 0.238784 0.239684
vt 0.238784 0.239684
vt 0.238784 0.239684
vt 0.238784 0.239684
vt 0.238784 0.239684
vt 0.901240 0.116703
vt 0.901240 0.116703
vt 0.901240 0.116703
vt 0.901240 0.116703
vt 0.901240 0.116703
vt 0.901240 0.116703
vt 0.901240 0.116703
vt 0.901240 0.116703
vt 0.901240 0.116703
vt 0.901240 0.116703
vt 0.901240 0.116703
vt 0.901240 0.116703
vt 0.901240 0.116703
vt 0.901240 0.116703
vt 0.901240 0.116703
vn 0.9288 -0.2243 0.2951
vn -0.8642 0.4145 0.2853
vn 0.5988 -0.1135 -0.7928
vn 0.0259 0.1208 0.9923
vn -0.5517 0.2973 -0.7792
vn -0.5981 -0.0109 -0.8014
vn 0.0007 0.0175 0.9998
vn 0.5993 0.0469 -0.7991
vn -0.9531 -0.0201 0.3019
vn 0.9511 0.0724 0.3002
vn 0.4892 0.8722 -0.0000
vn 0.3480 0.7438 0.5706
vn -0.7810 -0.6041 -0.1581
vn 0.7277 0.4928 -0.4770
vn -0.6149 0.0750 0.7850
vn -0.0081 -0.3718 -0.9283
vn 0.2222 -0.5454 -0.8082
vn -0.5492 0.0081 0.8356
vn 0.6089 0.5619 -0.5600
vn -0.4904 -0.8703 0.0461
vn 0.1269 0.8909 0.4362
vn -0.4891 0.8150 -0.3107
vn -0.9219 -0.3755 -0.0955
vn -0.4619 -0.8514 0.2484
vn -0.5643 -0.2578 -0.7843
vn -0.0325 -0.6258 -0.7793
vn 0.0264 -0.9798 -0.1980
vn -0.2368 -0.4679 0.8515
vn -0.8718 0.3512 0.3414
vn -0.3992 0.4820 -0.7799
vn 0.4444 -0.2146 -0.8697
vn 0.5596 -0.8212 0.1115
vn -0.4475 0.2358 0.8626
vn -0.5594 0.8235 -0.0946
vn 0.2368 0.4679 -0.8515
vn 0.8806 -0.3364 -0.3336
vn 0.3992 -0.4820 0.7799
vn 0.0140 0.6338 0.7734
vn -0.0404 0.9769 0.2097
vn 0.4619 0.8514 -0.2484
vn 0.9219 0.3755 0.0955
vn 0.5643 0.2578 0.7843
vn -0.5636 0.8216 -0.0858
vn 0.0772 0.9022 -0.4243
vn -0.4151 0.6856 0.5980
vn 0.3220 0.6689 0.6700
vn 0.6130 0.7885 0.0504
vn 0.1126 0.3866 -0.9153
vn -0.9016 0.2515 -0.3518
vn -0.6774 0.0264 0.7352
vn 0.5055 0.0185 0.8626
vn 0.9634 0.2326 -0.1333
vn -0.5021 -0.0157 -0.8647
vn -0.9623 -0.2279 0.1483
vn -0.1126 -0.3866 0.9153
vn 0.9035 -0.2404 0.3549
vn 0.6774 -0.0264 -0.7352
vn -0.3173 -0.6704 -0.6708
vn -0.6064 -0.7940 -0.0423
vn -0.0772 -0.9022 0.4243
vn 0.5636 -0.8216 0.0858
vn 0.4151 -0.6856 -0.5980
vn -0.8704 -0.4694 -0.1484
vn -0.9765 0.1669 0.1361
vn -0.4456 -0.8491 0.2838
vn -0.2917 -0.4559 0.8409
vn -0.6312 0.1819 0.7540
vn -0.6913 0.6613 -0.2911
vn -0.5304 -0.3694 -0.7631
vn 0.1611 -0.9856 -0.0520
vn 0.4186 -0.3370 0.8433
vn -0.1152 0.7026 0.7022
vn -0.4173 0.3356 -0.8445
vn 0.1139 -0.6947 -0.7103
vn 0.6913 -0.6613 0.2911
vn 0.5351 0.3713 0.7588
vn -0.1611 0.9856 0.0520
vn 0.2903 0.4528 -0.8431
vn 0.6238 -0.1814 -0.7603
vn 0.9765 -0.1669 -0.1361
vn 0.8704 0.4694 0.1484
vn 0.4456 0.8491 -0.2838
vn -0.6507 0.7438 -0.1525
vn 0.6607 -0.6041 -0.4455
vn -0.1708 0.4928 0.8532
vn -0.1278 0.0750 -0.9890
vn 0.6670 -0.3718 0.6456
vn 0.4199 -0.5454 0.7255
vn -0.2099 0.0081 -0.9777
vn -0.0283 0.5619 0.8267
vn 0.3112 -0.8703 -0.3817
vn -0.3998 0.8909 -0.2157
vn 0.5646 0.8150 -0.1305
vn 0.5943 -0.5030 0.6275
vn 0.2627 0.0422 0.9639
vn 0.9776 -0.1904 0.0894
vn 0.8501 0.5196 0.0857
vn 0.4249 0.6665 0.6125
vn -0.4470 -0.0944 0.8895
vn 0.0742 -0.9408 0.3308
vn 0.7125 -0.4724 -0.5188
vn 0.5292 0.6852 -0.5005
vn -0.1621 0.9247 0.3445
vn -0.5269 -0.7016 0.4798
vn 0.1455 -0.9302 -0.3370
vn 0.4470 0.0944 -0.8895
vn -0.0929 0.9343 -0.3441
vn -0.7126 0.4724 0.5188
vn -0.8378 -0.5394 -0.0848
vn -0.4261 -0.6785 -0.5984
vn -0.2627 -0.0422 -0.9639
vn -0.5943 0.5030 -0.6275
vn -0.9776 0.1904 -0.0894
vn 0.5387 0.7438 -0.3957
vn -0.0905 -0.6041 0.7917
vn -0.5376 0.4928 -0.6842
vn 0.8349 0.0750 0.5453
vn -0.9242 -0.3718 0.0877
vn -0.7881 -0.5778 -0.2123
vn 0.8235 0.0626 0.5639
vn -0.5661 0.5108 -0.6471
vn 0.0631 -0.8436 0.5332
vn 0.4185 0.8949 -0.1547
vn -0.2676 0.8150 0.5140
s off
f 12/1/1 10/2/1 9/3/1 11/4/1
f 14/5/2 8/6/2 7/7/2 13/8/2
f 15/9/3 6/10/3 10/2/3 12/1/3
f 11/4/4 9/3/4 8/6/4 14/5/4
f 13/8/5 7/7/5 6/10/5 15/9/5
f 2/11/6 13/8/6 15/9/6 1/12/6
f 4/13/7 11/4/7 14/5/7 3/14/7
f 1/12/8 15/9/8 12/1/8 5/15/8
f 3/14/9 14/5/9 13/8/9 2/11/9
f 5/15/10 12/1/10 11/4/10 4/13/10
f 7/7/11 8/6/11 9/3/11 10/2/11 6/10/11
f 27/16/12 25/17/12 24/18/12 26/19/12
f 29/20/13 23/21/13 22/22/13 28/23/13
f 30/24/14 21/25/14 25/17/14 27/16/14
f 26/19/15 24/18/15 23/21/15 29/20/15
f 28/23/16 22/22/16 21/25/16 30/24/16
f 17/26/17 28/23/17 30/24/17 16/27/17
f 19/28/18 26/19/18 29/20/18 18/29/18
f 16/27/19 30/24/19 27/16/19 20/30/19
f 18/29/20 29/20/20 28/23/20 17/26/20
f 20/30/21 27/16/21 26/19/21 19/28/21
f 22/22/22 23/21/22 24/18/22 25/17/22 21/25/22
f 31/31/23 32/32/23 33/33/23
f 32/32/24 31/31/24 36/34/24
f 31/31/25 33/33/25 34/35/25
f 31/31/26 34/35/26 35/36/26
f 31/31/27 35/36/27 36/34/27
f 32/32/28 36/34/28 41/37/28
f 33/33/29 32/32/29 37/38/29
f 34/35/30 33/33/30 38/39/30
f 35/36/31 34/35/31 39/40/31
f 36/34/32 35/36/32 40/41/32
f 32/32/33 41/37/33 37/38/33
f 33/33/34 37/38/34 38/39/34
f 34/35/35 38/39/35 39/40/35
f 35/36/36 39/40/36 40/41/36
f 36/34/37 40/41/37 41/37/37
f 37/38/38 41/37/38 42/42/38
f 38/39/39 37/38/39 42/42/39
f 39/40/40 38/39/40 42/42/40
f 40/41/41 39/40/41 42/42/41
f 41/37/42 40/41/42 42/42/42
f 43/43/43 44/44/43 45/45/43
f 44/44/44 43/43/44 48/46/44
f 43/43/45 45/45/45 46/47/45
f 43/43/46 46/47/46 47/48/46
f 43/43/47 47/48/47 48/46/47
f 44/44/48 48/46/48 53/49/48
f 45/45/49 44/44/49 49/50/49
f 46/47/50 45/45/50 50/51/50
f 47/48/51 46/47/51 51/52/51
f 48/46/52 47/48/52 52/53/52
f 44/44/53 53/49/53 49/50/53
f 45/45/54 49/50/54 50/51/54
f 46/47/55 50/51/55 51/52/55
f 47/48/56 51/52/56 52/53/56
f 48/46/57 52/53/57 53/49/57
f 49/50/58 53/49/58 54/54/58
f 50/51/59 49/50/59 54/54/59
f 51/52/60 50/51/60 54/54/60
f 52/53/61 51/52/61 54/54/61
f 53/49/62 52/53/62 54/54/62
f 55/55/63 56/56/63 57/57/63
f 56/56/64 55/55/64 60/58/64
f 55/55/65 57/57/65 58/59/65
f 55/55/66 58/59/66 59/60/66
f 55/55/67 59/60/67 60/58/67
f 56/56/68 60/58/68 65/61/68
f 57/57/69 56/56/69 61/62/69
f 58/59/70 57/57/70 62/63/70
f 59/60/71 58/59/71 63/64/71
f 60/58/72 59/60/72 64/65/72
f 56/56/73 65/61/73 61/62/73
f 57/57/74 61/62/74 62/63/74
f 58/59/75 62/63/75 63/64/75
f 59/60/76 63/64/76 64/65/76
f 60/58/77 64/65/77 65/61/77
f 61/62/78 65/61/78 66/66/78
f 62/63/79 61/62/79 66/66/79
f 63/64/80 62/63/80 66/66/80
f 64/65/81 63/64/81 66/66/81
f 65/61/82 64/65/82 66/66/82
f 78/67/83 76/68/83 75/69/83 77/70/83
f 80/71/84 74/72/84 73/73/84 79/74/84
f 81/75/85 72/76/85 76/68/85 78/67/85
f 77/70/86 75/69/86 74/72/86 80/71/86
f 79/74/87 73/73/87 72/76/87 81/75/87
f 68/77/88 79/74/88 81/75/88 67/78/88
f 70/79/89 77/70/89 80/71/89 69/80/89
f 67/78/90 81/75/90 78/67/90 71/81/90
f 69/80/91 80/71/91 79/74/91 68/77/91
f 71/81/92 78/67/92 77/70/92 70/79/92
f 73/73/93 74/72/93 75/69/93 76/68/93 72/76/93
f 82/82/94 83/83/94 84/84/94
f 83/83/95 82/82/95 87/85/95
f 82/82/96 84/84/96 85/86/96
f 82/82/97 85/86/97 86/87/97
f 82/82/98 86/87/98 87/85/98
f 83/83/99 87/85/99 92/88/99
f 84/84/100 83/83/100 88/89/100
f 85/86/101 84/84/101 89/90/101
f 86/87/102 85/86/102 90/91/102
f 87/85/103 86/87/103 91/92/103
f 83/83/104 92/88/104 88/89/104
f 84/84/105 88/89/105 89/90/105
f 85/86/106 89/90/106 90/91/106
f 86/87/107 90/91/107 91/92/107
f 87/85/108 91/92/108 92/88/108
f 88/89/109 92/88/109 93/93/109
f 89/90/110 88/89/110 93/93/110
f 90/91/111 89/90/111 93/93/111
f 91/92/112 90/91/112 93/93/112
f 92/88/113 91/92/113 93/93/113
f 105/94/114 103/95/114 102/96/114 104/97/114
f 107/98/115 101/99/115 100/100/115 106/101/115
f 108/102/116 99/103/116 103/95/116 105/94/116
f 104/97/117 102/96/117 101/99/117 107/98/117
f 106/101/118 100/100/118 99/103/118 108/102/118
f 95/104/119 106/101/119 108/102/119 94/105/119
f 97/106/120 104/97/120 107/98/120 96/107/120
f 94/105/121 108/102/121 105/94/121 98/108/121
f 96/107/122 107/98/122 106/101/122 95/104/122
f 98/108/123 105/94/123 104/97/123 97/106/123
f 100/100/124 101/99/124 102/96/124 103/95/124 99/103/124
