# Blender v2.79 (sub 0) OBJ File: 'Assets.blend'
# www.blender.org
o Plane
v 1.200000 1.650000 2.550000
v -1.200000 1.650000 2.550000
v -1.200000 1.200000 1.200000
v 1.200000 1.200000 1.200000
v -1.200000 1.350000 -0.300000
v 1.200000 1.350000 -0.300000
v -1.200000 2.250000 -1.650000
v 1.200000 2.250000 -1.650000
v -1.200000 3.450000 -2.400000
v 1.200000 3.450000 -2.400000
v 0.720000 1.650000 2.550000
v 0.240000 1.650000 2.550000
v -0.240000 1.650000 2.550000
v -0.720000 1.650000 2.550000
v 0.720000 1.200000 1.200000
v 0.240000 1.200000 1.200000
v -0.240000 1.200000 1.200000
v -0.720000 1.200000 1.200000
v 0.720000 1.350000 -0.300000
v 0.240000 1.350000 -0.300000
v -0.240000 1.350000 -0.300000
v -0.720000 1.350000 -0.300000
v 0.720000 2.250000 -1.650000
v 0.240000 2.250000 -1.650000
v -0.240000 2.250000 -1.650000
v -0.720000 2.250000 -1.650000
v 0.720000 3.450000 -2.400000
v 0.240000 3.450000 -2.400000
v -0.240000 3.450000 -2.400000
v -0.720000 3.450000 -2.400000
v -1.372500 1.789356 2.670701
v -1.350000 1.781661 2.649558
v -1.372500 1.802804 2.641862
v -1.350000 0.257961 -1.536773
v -1.372500 0.250265 -1.557916
v -1.372500 0.279104 -1.544468
v -1.477500 1.789356 2.670701
v -1.477500 1.802804 2.641862
v -1.500000 1.781661 2.649558
v -1.477500 0.250265 -1.557916
v -1.500000 0.257961 -1.536773
v -1.477500 0.279104 -1.544468
v -1.372500 1.549735 2.757916
v -1.372500 1.520896 2.744468
v -1.350000 1.542039 2.736773
v -1.350000 0.018339 -1.449558
v -1.372500 -0.002804 -1.441862
v -1.372500 0.010644 -1.470701
v -1.477500 1.549735 2.757916
v -1.500000 1.542039 2.736773
v -1.477500 1.520896 2.744468
v -1.477500 0.010644 -1.470701
v -1.477500 -0.002804 -1.441862
v -1.500000 0.018339 -1.449558
v 1.477500 1.789356 2.670701
v 1.500000 1.781661 2.649558
v 1.477500 1.802804 2.641862
v 1.500000 0.257961 -1.536773
v 1.477500 0.250265 -1.557916
v 1.477500 0.279104 -1.544468
v 1.372500 1.789356 2.670701
v 1.372500 1.802804 2.641862
v 1.350000 1.781661 2.649558
v 1.372500 0.250265 -1.557916
v 1.350000 0.257961 -1.536773
v 1.372500 0.279104 -1.544468
v 1.477500 1.549735 2.757916
v 1.477500 1.520896 2.744468
v 1.500000 1.542039 2.736773
v 1.500000 0.018339 -1.449558
v 1.477500 -0.002804 -1.441862
v 1.477500 0.010644 -1.470701
v 1.372500 1.549735 2.757916
v 1.350000 1.542039 2.736773
v 1.372500 1.520896 2.744468
v 1.372500 0.010644 -1.470701
v 1.372500 -0.002804 -1.441862
v 1.350000 0.018339 -1.449558
v -1.200000 1.839641 -0.382923
v -1.222500 1.852546 -0.401354
v -1.222500 1.858072 -0.370017
v 1.222499 0.211375 -1.550514
v 1.222499 0.180039 -1.544989
v 1.200000 0.198470 -1.532083
v -1.200001 0.198470 -1.532083
v -1.222500 0.180039 -1.544989
v -1.222500 0.211375 -1.550514
v 1.350000 1.693379 -0.174039
v 1.327500 1.711810 -0.161134
v 1.327500 1.680474 -0.155608
v -1.200000 1.693379 -0.174039
v -1.222500 1.711810 -0.161134
v -1.222500 1.680474 -0.155608
v 1.350000 0.198470 -1.532083
v 1.327500 0.180039 -1.544989
v 1.327500 0.211375 -1.550514
v -1.327501 0.180039 -1.544989
v -1.350001 0.198470 -1.532083
v -1.327501 0.211375 -1.550514
v 1.327500 1.852546 -0.401354
v 1.327500 1.858072 -0.370017
v 1.350000 1.839641 -0.382923
v 1.200000 0.052208 -1.323200
v 1.222500 0.033777 -1.336105
v 1.222500 0.039302 -1.304769
v 1.327500 0.256939 2.443680
v 1.327500 0.225603 2.449206
v 1.350000 0.238508 2.430775
v 1.222500 1.852546 -0.401354
v 1.200000 1.839641 -0.382923
v 1.222500 1.858072 -0.370017
v 1.222500 0.256939 2.443680
v 1.200000 0.238508 2.430775
v 1.222500 0.225603 2.449206
v 1.327500 0.033777 -1.336105
v 1.350000 0.052208 -1.323200
v 1.327500 0.039302 -1.304769
v 1.327500 0.011194 2.271608
v 1.350000 0.029625 2.284513
v 1.327500 0.016719 2.302944
v 1.222500 1.680473 -0.155608
v 1.222500 1.711810 -0.161134
v 1.200000 1.693379 -0.174039
v 1.222500 0.011194 2.271608
v 1.222500 0.016719 2.302944
v 1.200000 0.029625 2.284513
v -1.327500 0.011194 2.271608
v -1.327500 0.016719 2.302944
v -1.350000 0.029625 2.284513
v -1.200000 0.029625 2.284513
v -1.222500 0.016719 2.302944
v -1.222500 0.011194 2.271608
v -1.350000 0.238508 2.430775
v -1.327500 0.225603 2.449206
v -1.327500 0.256939 2.443680
v -1.200000 0.238508 2.430775
v -1.222500 0.256939 2.443680
v -1.222500 0.225603 2.449206
v -1.222500 3.448351 -2.637161
v -1.222500 3.479687 -2.642687
v -1.200000 3.466782 -2.624256
v -1.222500 3.688571 -2.496425
v -1.222500 3.694096 -2.465088
v -1.200000 3.675665 -2.477993
v -1.327500 3.479687 -2.642686
v -1.327500 3.448351 -2.637160
v -1.350000 3.466782 -2.624255
v -1.327500 3.694096 -2.465088
v -1.327500 3.688571 -2.496425
v -1.350000 3.675665 -2.477993
v 1.200000 3.675665 -2.477993
v 1.222500 3.694096 -2.465088
v 1.222500 3.688571 -2.496425
v 1.200000 3.466782 -2.624255
v 1.222500 3.479687 -2.642686
v 1.222500 3.448351 -2.637160
v 1.327500 3.694096 -2.465088
v 1.350000 3.675665 -2.477993
v 1.327500 3.688571 -2.496425
v 1.327500 3.448351 -2.637161
v 1.327500 3.479687 -2.642687
v 1.350000 3.466782 -2.624256
v -1.327501 0.039302 -1.304769
v -1.350001 0.052208 -1.323200
v -1.327501 0.033777 -1.336105
v -1.327500 1.852546 -0.401354
v -1.350000 1.839641 -0.382923
v -1.327500 1.858072 -0.370017
v -1.222500 0.033777 -1.336105
v -1.200001 0.052208 -1.323200
v -1.222500 0.039302 -1.304769
v -1.350000 1.693379 -0.174039
v -1.327500 1.680473 -0.155608
v -1.327500 1.711810 -0.161134
vt 0.222834 0.738653
vt 0.222834 0.738653
vt 0.222834 0.738653
vt 0.222834 0.738653
vt 0.222834 0.738653
vt 0.222834 0.738653
vt 0.222834 0.738653
vt 0.222834 0.738653
vt 0.222834 0.738653
vt 0.222834 0.738653
vt 0.222834 0.738653
vt 0.222834 0.738653
vt 0.222834 0.738653
vt 0.222834 0.738653
vt 0.781917 0.752988
vt 0.781917 0.752988
vt 0.781917 0.752988
vt 0.781917 0.752988
vt 0.222834 0.738653
vt 0.222834 0.738653
vt 0.222834 0.738653
vt 0.222834 0.738653
vt 0.781917 0.752988
vt 0.781917 0.752988
vt 0.781917 0.752988
vt 0.781917 0.752988
vt 0.222834 0.738653
vt 0.222834 0.738653
vt 0.781917 0.752988
vt 0.781917 0.752988
vt 0.222834 0.738653
vt 0.222834 0.738653
vt 0.781917 0.752988
vt 0.781917 0.752988
vt 0.222834 0.738653
vt 0.222834 0.738653
vt 0.781917 0.752988
vt 0.781917 0.752988
vt 0.222834 0.738653
vt 0.222834 0.738653
vt 0.781917 0.752988
vt 0.781917 0.752988
vt 0.222834 0.738653
vt 0.222834 0.738653
vt 0.781917 0.752988
vt 0.781917 0.752988
vt 0.222834 0.738653
vt 0.222834 0.738653
vt 0.781917 0.752988
vt 0.781917 0.752988
vt 0.263465 0.277800
vt 0.263465 0.277800
vt 0.263465 0.277800
vt 0.263465 0.277800
vt 0.263465 0.277800
vt 0.263465 0.277800
vt 0.263465 0.277800
vt 0.263465 0.277800
vt 0.263465 0.277800
vt 0.263465 0.277800
vt 0.263465 0.277800
vt 0.263465 0.277800
vt 0.263465 0.277800
vt 0.263465 0.277800
vt 0.263465 0.277800
vt 0.263465 0.277800
vt 0.263465 0.277800
vt 0.263465 0.277800
vt 0.263465 0.277800
vt 0.263465 0.277800
vt 0.263465 0.277800
vt 0.263465 0.277800
vt 0.263465 0.277800
vt 0.263465 0.277800
vt 0.263465 0.277800
vt 0.263465 0.277800
vt 0.263465 0.277800
vt 0.263465 0.277800
vt 0.263465 0.277800
vt 0.263465 0.277800
vt 0.263465 0.277800
vt 0.263465 0.277800
vt 0.263465 0.277800
vt 0.263465 0.277800
vt 0.263465 0.277800
vt 0.263465 0.277800
vt 0.263465 0.277800
vt 0.263465 0.277800
vt 0.263465 0.277800
vt 0.263465 0.277800
vt 0.263465 0.277800
vt 0.263465 0.277800
vt 0.263465 0.277800
vt 0.263465 0.277800
vt 0.263465 0.277800
vt 0.263465 0.277800
vt 0.263465 0.277800
vt 0.263465 0.277800
vt 0.263465 0.277800
vt 0.263465 0.277800
vt 0.263465 0.277800
vt 0.263465 0.277800
vt 0.263465 0.277800
vt 0.263465 0.277800
vt 0.263465 0.277800
vt 0.263465 0.277800
vt 0.263465 0.277800
vt 0.263465 0.277800
vt 0.263465 0.277800
vt 0.263465 0.277800
vt 0.263465 0.277800
vt 0.263465 0.277800
vt 0.263465 0.277800
vt 0.263465 0.277800
vt 0.263465 0.277800
vt 0.263465 0.277800
vt 0.263465 0.277800
vt 0.263465 0.277800
vt 0.263465 0.277800
vt 0.263465 0.277800
vt 0.263465 0.277800
vt 0.263465 0.277800
vt 0.263465 0.277800
vt 0.263465 0.277800
vt 0.263465 0.277800
vt 0.263465 0.277800
vt 0.263465 0.277800
vt 0.263465 0.277800
vt 0.263465 0.277800
vt 0.263465 0.277800
vt 0.263465 0.277800
vt 0.263465 0.277800
vt 0.263465 0.277800
vt 0.263465 0.277800
vt 0.263465 0.277800
vt 0.263465 0.277800
vt 0.263465 0.277800
vt 0.263465 0.277800
vt 0.263465 0.277800
vt 0.263465 0.277800
vt 0.263465 0.277800
vt 0.263465 0.277800
vt 0.263465 0.277800
vt 0.263465 0.277800
vt 0.263465 0.277800
vt 0.263465 0.277800
vt 0.263465 0.277800
vt 0.263465 0.277800
vt 0.263465 0.277800
vt 0.263465 0.277800
vt 0.263465 0.277800
vt 0.263465 0.277800
vt 0.263465 0.277800
vt 0.263465 0.277800
vt 0.263465 0.277800
vt 0.263465 0.277800
vt 0.263465 0.277800
vt 0.263465 0.277800
vt 0.263465 0.277800
vt 0.263465 0.277800
vt 0.263465 0.277800
vt 0.263465 0.277800
vt 0.263465 0.277800
vt 0.263465 0.277800
vt 0.263465 0.277800
vt 0.263465 0.277800
vt 0.263465 0.277800
vt 0.263465 0.277800
vt 0.263465 0.277800
vt 0.263465 0.277800
vt 0.263465 0.277800
vt 0.263465 0.277800
vt 0.263465 0.277800
vt 0.263465 0.277800
vt 0.263465 0.277800
vt 0.263465 0.277800
vt 0.263465 0.277800
vt 0.263465 0.277800
vt 0.263465 0.277800
vt 0.263465 0.277800
vt 0.263465 0.277800
vt 0.263465 0.277800
vt 0.263465 0.277800
vt 0.263465 0.277800
vt 0.263465 0.277800
vt 0.263465 0.277800
vt 0.263465 0.277800
vt 0.263465 0.277800
vt 0.263465 0.277800
vt 0.263465 0.277800
vt 0.263465 0.277800
vt 0.263465 0.277800
vt 0.263465 0.277800
vt 0.263465 0.277800
vn 0.0000 0.9487 -0.3162
vn 0.0000 0.9950 0.0995
vn 0.0000 0.8321 0.5547
vn 0.0000 0.5300 0.8480
vn 1.0000 -0.0000 -0.0000
vn 0.0000 0.3420 0.9397
vn -1.0000 0.0000 0.0000
vn 0.0000 0.9397 -0.3420
vn 0.0000 -0.9397 0.3420
vn 0.0000 -0.3420 -0.9397
vn 0.0000 -0.5736 0.8192
vn -0.0000 0.8192 0.5736
vn 0.0000 0.5736 -0.8192
vn 0.0000 -0.8192 -0.5736
vn 0.5773 0.7400 0.3451
vn 0.5774 0.3451 -0.7400
vn -0.5773 0.7400 0.3451
vn -0.5774 0.3451 -0.7400
vn 0.5773 -0.3451 0.7400
vn 0.5774 -0.7400 -0.3451
vn -0.5773 -0.3451 0.7400
vn -0.5773 -0.7400 -0.3451
vn 0.5773 -0.7400 -0.3451
vn 0.5773 0.8041 -0.1418
vn -0.5774 -0.1418 -0.8041
vn 0.5774 -0.1418 -0.8041
vn 0.5774 0.1418 0.8041
vn 0.5774 0.8041 -0.1418
vn -0.5773 -0.8041 0.1418
vn -0.5773 0.8041 -0.1418
vn -0.5774 0.1418 0.8041
vn 0.5773 -0.8041 0.1418
vn 0.5774 -0.8041 0.1418
vn -0.5774 -0.8041 0.1418
vn -0.5773 -0.1418 -0.8041
vn -0.5774 0.8041 -0.1418
vn -0.5773 0.1418 0.8041
vn 0.0000 0.9063 0.4226
vn 0.7071 0.6645 -0.2418
vn 0.0000 0.4226 -0.9063
vn -0.7071 0.6645 -0.2418
vn 0.0000 -0.4226 0.9063
vn 0.7071 -0.6645 0.2418
vn 0.0000 -0.9063 -0.4226
vn -0.7071 -0.6645 0.2418
vn -0.7071 -0.2418 -0.6645
vn 0.7071 -0.2418 -0.6645
vn 0.7071 0.2418 0.6645
vn -0.7071 0.2418 0.6645
vn 0.7071 -0.5792 -0.4056
vn 0.7071 -0.4056 0.5792
vn -0.7071 -0.4056 0.5792
vn 0.0000 -0.1736 -0.9848
vn -0.0000 0.1736 0.9848
vn 0.7071 0.5792 0.4056
vn -0.7071 0.4056 -0.5792
vn -0.7071 0.5792 0.4056
vn 0.0000 -0.9848 0.1736
vn -0.0000 0.9848 -0.1736
vn 0.7071 0.4056 -0.5792
vn 0.0000 -0.9848 0.1737
vn -0.7071 -0.5792 -0.4056
vn -0.0000 -0.1737 -0.9848
s off
f 11/1/1 1/2/1 4/3/1 15/4/1
f 15/4/2 4/3/2 6/5/2 19/6/2
f 19/6/3 6/5/3 8/7/3 23/8/3
f 23/8/4 8/7/4 10/9/4 27/10/4
f 7/11/4 26/12/4 30/13/4 9/14/4
f 26/15/4 25/16/4 29/17/4 30/18/4
f 25/19/4 24/20/4 28/21/4 29/22/4
f 24/23/4 23/24/4 27/25/4 28/26/4
f 5/27/3 22/28/3 26/12/3 7/11/3
f 22/29/3 21/30/3 25/16/3 26/15/3
f 21/31/3 20/32/3 24/20/3 25/19/3
f 20/33/3 19/34/3 23/24/3 24/23/3
f 3/35/2 18/36/2 22/28/2 5/27/2
f 18/37/2 17/38/2 21/30/2 22/29/2
f 17/39/2 16/40/2 20/32/2 21/31/2
f 16/41/2 15/42/2 19/34/2 20/33/2
f 2/43/1 14/44/1 18/36/1 3/35/1
f 14/45/1 13/46/1 17/38/1 18/37/1
f 13/47/1 12/48/1 16/40/1 17/39/1
f 12/49/1 11/50/1 15/42/1 16/41/1
f 32/51/5 45/52/5 46/53/5 34/54/5
f 61/55/6 73/56/6 67/57/6 55/58/6
f 41/59/7 54/60/7 50/61/7 39/62/7
f 33/63/8 36/64/8 42/65/8 38/66/8
f 44/67/9 51/68/9 53/69/9 47/70/9
f 35/71/10 48/72/10 52/73/10 40/74/10
f 56/75/5 69/76/5 70/77/5 58/78/5
f 79/79/5 91/80/5 170/81/5 85/82/5
f 65/83/7 78/84/7 74/85/7 63/86/7
f 57/87/8 60/88/8 66/89/8 62/90/8
f 68/91/9 75/92/9 77/93/9 71/94/9
f 59/95/10 72/96/10 76/97/10 64/98/10
f 93/99/11 173/100/11 163/101/11 171/102/11
f 101/103/12 111/104/12 122/105/12 89/106/12
f 133/107/7 150/108/7 147/109/7 129/110/7
f 100/111/13 96/112/13 82/113/13 109/114/13
f 95/115/14 115/116/14 104/117/14 83/118/14
f 80/119/13 87/120/13 99/121/13 166/122/13
f 140/123/13 145/124/13 149/125/13 142/126/13
f 113/127/7 151/128/7 154/129/7 126/130/7
f 158/131/5 108/132/5 119/133/5 162/134/5
f 98/135/7 164/136/7 172/137/7 167/138/7
f 90/139/11 121/140/11 105/141/11 117/142/11
f 160/143/14 118/144/14 124/145/14 156/146/14
f 144/147/5 136/148/5 130/149/5 141/150/5
f 138/151/11 134/152/11 128/153/11 131/154/11
f 161/155/13 155/156/13 153/157/13 159/158/13
f 139/159/14 132/160/14 127/161/14 146/162/14
f 86/163/14 169/164/14 165/165/14 97/166/14
f 81/167/12 168/168/12 174/169/12 92/170/12
f 102/171/5 88/172/5 116/173/5 94/174/5
f 143/175/12 148/176/12 135/177/12 137/178/12
f 107/179/11 114/180/11 125/181/11 120/182/11
f 84/183/7 103/184/7 123/185/7 110/186/7
f 157/187/12 152/188/12 112/189/12 106/190/12
f 31/191/15 32/51/15 33/63/15
f 34/54/16 35/71/16 36/64/16
f 37/192/17 38/66/17 39/62/17
f 40/74/18 41/59/18 42/65/18
f 43/193/19 44/67/19 45/52/19
f 46/53/20 47/70/20 48/72/20
f 49/194/21 50/61/21 51/68/21
f 52/73/22 53/69/22 54/60/22
f 55/58/15 56/75/15 57/87/15
f 58/78/16 59/95/16 60/88/16
f 61/55/17 62/90/17 63/86/17
f 64/98/18 65/83/18 66/89/18
f 67/57/19 68/91/19 69/76/19
f 70/77/23 71/94/23 72/96/23
f 73/56/21 74/85/21 75/92/21
f 76/97/22 77/93/22 78/84/22
f 79/79/24 80/119/24 81/167/24
f 82/113/25 83/118/25 84/183/25
f 85/82/26 86/163/26 87/120/26
f 88/172/27 89/106/27 90/139/27
f 91/80/27 92/170/27 93/99/27
f 94/174/26 95/115/26 96/112/26
f 97/166/25 98/135/25 99/121/25
f 100/111/28 101/103/28 102/171/28
f 103/184/29 104/117/29 105/141/29
f 106/190/27 107/179/27 108/132/27
f 109/114/30 110/186/30 111/104/30
f 112/189/31 113/127/31 114/180/31
f 115/116/32 116/173/32 117/142/32
f 118/144/33 119/133/33 120/182/33
f 121/140/31 122/105/31 123/185/31
f 124/145/34 125/181/34 126/130/34
f 127/161/34 128/153/34 129/110/34
f 130/149/33 131/154/33 132/160/33
f 133/107/31 134/152/31 135/177/31
f 136/148/27 137/178/27 138/151/27
f 139/159/26 140/123/26 141/150/26
f 142/126/24 143/175/24 144/147/24
f 145/124/35 146/162/35 147/109/35
f 148/176/30 149/125/30 150/108/30
f 151/128/36 152/188/36 153/157/36
f 154/129/35 155/156/35 156/146/35
f 157/187/24 158/131/24 159/158/24
f 160/143/26 161/155/26 162/134/26
f 163/101/29 164/136/29 165/165/29
f 166/122/30 167/138/30 168/168/30
f 169/164/33 170/81/33 171/102/33
f 172/137/37 173/100/37 174/169/37
f 37/192/38 31/191/38 33/63/38 38/66/38
f 32/51/39 34/54/39 36/64/39 33/63/39
f 35/71/40 40/74/40 42/65/40 36/64/40
f 41/59/41 39/62/41 38/66/41 42/65/41
f 51/68/42 44/67/42 43/193/42 49/194/42
f 44/67/43 47/70/43 46/53/43 45/52/43
f 47/70/44 53/69/44 52/73/44 48/72/44
f 53/69/45 51/68/45 50/61/45 54/60/45
f 40/74/46 52/73/46 54/60/46 41/59/46
f 48/72/47 35/71/47 34/54/47 46/53/47
f 31/191/48 43/193/48 45/52/48 32/51/48
f 49/194/49 37/192/49 39/62/49 50/61/49
f 61/55/38 55/58/38 57/87/38 62/90/38
f 56/75/39 58/78/39 60/88/39 57/87/39
f 59/95/40 64/98/40 66/89/40 60/88/40
f 65/83/41 63/86/41 62/90/41 66/89/41
f 75/92/42 68/91/42 67/57/42 73/56/42
f 68/91/43 71/94/43 70/77/43 69/76/43
f 71/94/44 77/93/44 76/97/44 72/96/44
f 77/93/45 75/92/45 74/85/45 78/84/45
f 64/98/46 76/97/46 78/84/46 65/83/46
f 72/96/47 59/95/47 58/78/47 70/77/47
f 55/58/48 67/57/48 69/76/48 56/75/48
f 73/56/49 61/55/49 63/86/49 74/85/49
f 169/164/50 86/163/50 85/82/50 170/81/50
f 93/99/51 171/102/51 170/81/51 91/80/51
f 163/101/52 173/100/52 172/137/52 164/136/52
f 86/163/53 97/166/53 99/121/53 87/120/53
f 173/100/54 93/99/54 92/170/54 174/169/54
f 91/80/55 79/79/55 81/167/55 92/170/55
f 98/135/56 167/138/56 166/122/56 99/121/56
f 174/169/57 168/168/57 167/138/57 172/137/57
f 105/141/52 121/140/52 123/185/52 103/184/52
f 117/142/58 105/141/58 104/117/58 115/116/58
f 80/119/59 166/122/59 168/168/59 81/167/59
f 79/79/60 85/82/60 87/120/60 80/119/60
f 102/171/60 94/174/60 96/112/60 100/111/60
f 130/149/51 136/148/51 138/151/51 131/154/51
f 106/190/54 112/189/54 114/180/54 107/179/54
f 84/183/56 110/186/56 109/114/56 82/113/56
f 88/172/55 102/171/55 101/103/55 89/106/55
f 131/154/61 128/153/61 127/161/61 132/160/61
f 120/182/61 125/181/61 124/145/61 118/144/61
f 83/118/62 104/117/62 103/184/62 84/183/62
f 113/127/52 126/130/52 125/181/52 114/180/52
f 119/133/51 108/132/51 107/179/51 120/182/51
f 97/166/62 165/165/62 164/136/62 98/135/62
f 122/105/57 111/104/57 110/186/57 123/185/57
f 139/159/63 146/162/63 145/124/63 140/123/63
f 133/107/52 129/110/52 128/153/52 134/152/52
f 144/147/60 141/150/60 140/123/60 142/126/60
f 137/178/54 135/177/54 134/152/54 138/151/54
f 129/110/62 147/109/62 146/162/62 127/161/62
f 135/177/57 148/176/57 150/108/57 133/107/57
f 141/150/50 130/149/50 132/160/50 139/159/50
f 143/175/55 137/178/55 136/148/55 144/147/55
f 149/125/56 145/124/56 147/109/56 150/108/56
f 148/176/59 143/175/59 142/126/59 149/125/59
f 157/187/55 106/190/55 108/132/55 158/131/55
f 162/134/50 119/133/50 118/144/50 160/143/50
f 121/140/54 90/139/54 89/106/54 122/105/54
f 95/115/53 83/118/53 82/113/53 96/112/53
f 171/102/58 163/101/58 165/165/58 169/164/58
f 100/111/59 109/114/59 111/104/59 101/103/59
f 112/189/57 152/188/57 151/128/57 113/127/57
f 126/130/62 154/129/62 156/146/62 124/145/62
f 90/139/51 117/142/51 116/173/51 88/172/51
f 115/116/50 95/115/50 94/174/50 116/173/50
f 158/131/60 162/134/60 161/155/60 159/158/60
f 160/143/63 156/146/63 155/156/63 161/155/63
f 152/188/59 157/187/59 159/158/59 153/157/59
f 153/157/56 155/156/56 154/129/56 151/128/56
f 37/192/6 49/194/6 43/193/6 31/191/6
